<svg width="127" height="127" viewBox="0 0 127 127" fill="none" xmlns="http://www.w3.org/2000/svg">
<rect width="127" height="127" rx="15" fill="#4685FF"/>
<path d="M98.1978 42.3246C98.9976 42.864 99.743 43.4803 100.424 44.1637C101.065 44.8081 101.709 45.4586 102.356 46.127C103.112 46.9081 103.764 47.7821 104.349 48.6989C104.986 49.6979 105.614 50.6614 106.149 51.6747C107.719 54.6533 108.564 57.8763 108.743 61.2271C108.938 64.8892 108.415 68.456 107.055 71.913C105.84 75.0016 104.051 77.6875 101.852 80.1244C101.222 80.8225 100.47 81.4152 99.7462 82.0231C98.9912 82.6572 98.2505 83.3279 97.4194 83.8481C95.1539 85.2665 92.7562 86.4009 90.1513 87.0839C86.4706 88.0489 82.7718 88.2387 79.0322 87.5255C75.3245 86.8184 71.9614 85.3705 68.8966 83.1314C66.8273 81.6197 65.0284 79.8548 63.4923 77.8529V77.8529C60.3479 73.755 55.994 70.0823 50.8288 70.085C48.8315 70.0861 46.8345 70.0871 44.8373 70.0882C40.6435 70.0904 37.2412 73.4921 37.2487 77.6859V77.6859C37.2522 79.6866 36.1997 80.7294 34.1688 80.7347C31.5581 80.7415 28.9472 80.7576 26.3369 80.7289C25.9875 80.725 25.6386 80.6777 25.2899 80.6205C24.6869 80.5216 24.1436 80.2647 23.7255 79.8191V79.8191C23.4075 79.4802 23.1724 79.0292 23.0715 78.5756C23.0323 78.3994 23.0038 78.2323 23.0009 78.0646C22.9766 76.6694 22.9913 75.2734 22.9936 73.8777C22.9956 72.6538 23.0001 71.4298 23.0035 70.2371C23.0038 70.1331 22.9459 70.005 22.8419 70.0048V70.0048C21.0589 70.0024 19.2754 69.9736 17.4931 70.0082C15.9291 70.0386 14.6267 68.7265 14.6493 67.1399C14.6895 64.3232 14.6489 61.5055 14.6697 58.6884C14.6833 56.8569 15.6587 55.7397 17.6146 55.7388C30.9515 55.7324 44.2884 55.7255 57.6253 55.7174C58.2176 55.717 58.9518 55.9144 59.3621 55.6374C59.7689 55.3628 59.8462 54.6031 60.0751 54.0591C60.133 53.9214 60.2319 53.8008 60.2881 53.6626C61.8589 49.7948 64.1247 46.4538 67.3778 43.76C69.0572 42.3694 70.7879 41.0796 72.7678 40.2237C74.6781 39.3979 76.6632 38.6639 78.6862 38.1999C81.7281 37.5023 84.8409 37.507 87.9249 38.0514C91.3266 38.6519 94.4885 39.8856 97.3825 41.7816C97.6556 41.9606 97.9271 42.1421 98.1978 42.3246ZM95.191 58.6741C94.591 57.5632 94.055 56.4115 93.3774 55.3502C92.0803 53.3187 90.1269 52.0511 87.9246 51.2499C84.7896 50.1094 81.5895 50.1869 78.5637 51.5949C77.1559 52.2499 75.808 53.2136 74.7168 54.3178C73.7236 55.323 72.9877 56.6469 72.3653 57.9394C71.3938 59.9572 71.172 62.1335 71.4505 64.3695C71.7293 66.6078 72.5743 68.5602 73.9201 70.3791C75.5229 72.5451 77.68 73.8347 80.1407 74.6577C81.8363 75.2248 83.6233 75.2512 85.4066 75.0102C87.6153 74.7118 89.6171 73.8834 91.3089 72.4626C93.4804 70.6388 95.0606 68.4043 95.6426 65.5447C96.1115 63.2409 96.0698 60.9869 95.191 58.6741Z" fill="white"/>
</svg>
