<svg width="637" height="147" viewBox="0 0 637 147" fill="none" xmlns="http://www.w3.org/2000/svg">
<path d="M189.967 121C188.175 118.099 186.042 114.984 183.567 111.656C181.178 108.243 178.532 104.872 175.631 101.544C172.815 98.1307 169.871 94.888 166.799 91.816C163.727 88.6587 160.655 85.8853 157.583 83.496V121H137.615V32.296H157.583V65.832C162.788 60.3707 167.994 54.696 173.199 48.808C178.49 42.8347 183.396 37.3307 187.919 32.296H211.599C205.54 39.464 199.439 46.376 193.295 53.032C187.236 59.688 180.836 66.3867 174.095 73.128C181.178 79.016 188.004 86.0133 194.575 94.12C201.231 102.227 207.588 111.187 213.647 121H189.967ZM215.51 87.848C215.51 81.8747 216.406 76.6693 218.198 72.232C220.075 67.7093 222.507 63.9547 225.494 60.968C228.481 57.9813 231.894 55.72 235.734 54.184C239.659 52.648 243.67 51.88 247.766 51.88C257.323 51.88 264.875 54.824 270.422 60.712C275.969 66.5147 278.742 75.0907 278.742 86.44C278.742 87.5493 278.699 88.7867 278.614 90.152C278.529 91.432 278.443 92.584 278.358 93.608H235.094C235.521 97.5333 237.355 100.648 240.598 102.952C243.841 105.256 248.193 106.408 253.654 106.408C257.153 106.408 260.566 106.109 263.894 105.512C267.307 104.829 270.081 104.019 272.214 103.08L274.774 118.568C273.75 119.08 272.385 119.592 270.678 120.104C268.971 120.616 267.051 121.043 264.918 121.384C262.87 121.811 260.651 122.152 258.262 122.408C255.873 122.664 253.483 122.792 251.094 122.792C245.035 122.792 239.745 121.896 235.222 120.104C230.785 118.312 227.073 115.88 224.086 112.808C221.185 109.651 219.009 105.939 217.558 101.672C216.193 97.4053 215.51 92.7973 215.51 87.848ZM260.31 80.552C260.225 78.9307 259.926 77.352 259.414 75.816C258.987 74.28 258.262 72.9147 257.238 71.72C256.299 70.5253 255.062 69.544 253.526 68.776C252.075 68.008 250.241 67.624 248.022 67.624C245.889 67.624 244.054 68.008 242.518 68.776C240.982 69.4587 239.702 70.3973 238.678 71.592C237.654 72.7867 236.843 74.1947 236.246 75.816C235.734 77.352 235.35 78.9307 235.094 80.552H260.31ZM353.236 53.672C349.396 66.6427 345.385 78.8027 341.204 90.152C337.023 101.501 332.457 112.509 327.508 123.176C325.716 127.016 323.924 130.259 322.132 132.904C320.34 135.635 318.377 137.853 316.244 139.56C314.111 141.352 311.679 142.632 308.948 143.4C306.303 144.253 303.188 144.68 299.604 144.68C296.617 144.68 293.844 144.381 291.284 143.784C288.809 143.272 286.761 142.675 285.14 141.992L288.468 126.76C290.431 127.443 292.18 127.912 293.716 128.168C295.252 128.424 296.873 128.552 298.58 128.552C301.993 128.552 304.596 127.613 306.388 125.736C308.265 123.944 309.844 121.427 311.124 118.184C306.772 109.651 302.42 100.093 298.068 89.512C293.716 78.8453 289.62 66.8987 285.78 53.672H306.004C306.857 57 307.839 60.6267 308.948 64.552C310.143 68.392 311.38 72.3173 312.66 76.328C313.94 80.2533 315.22 84.0933 316.5 87.848C317.865 91.6027 319.145 95.016 320.34 98.088C321.449 95.016 322.601 91.6027 323.796 87.848C324.991 84.0933 326.143 80.2533 327.252 76.328C328.447 72.3173 329.556 68.392 330.58 64.552C331.689 60.6267 332.671 57 333.524 53.672H353.236ZM427.332 46.12C424.601 48.936 421.359 52.6053 417.604 57.128C413.849 61.5653 409.967 66.4293 405.956 71.72C401.945 77.0107 397.977 82.472 394.052 88.104C390.127 93.736 386.628 99.112 383.556 104.232H428.74V121H358.98V109.096C361.369 104.744 364.271 99.9227 367.684 94.632C371.183 89.256 374.809 83.88 378.564 78.504C382.319 73.0427 386.116 67.7947 389.956 62.76C393.881 57.64 397.508 53.0747 400.836 49.064H361.028V32.296H427.332V46.12ZM437.135 87.848C437.135 81.8747 438.031 76.6693 439.823 72.232C441.7 67.7093 444.132 63.9547 447.119 60.968C450.106 57.9813 453.519 55.72 457.359 54.184C461.284 52.648 465.295 51.88 469.391 51.88C478.948 51.88 486.5 54.824 492.047 60.712C497.594 66.5147 500.367 75.0907 500.367 86.44C500.367 87.5493 500.324 88.7867 500.239 90.152C500.154 91.432 500.068 92.584 499.983 93.608H456.719C457.146 97.5333 458.98 100.648 462.223 102.952C465.466 105.256 469.818 106.408 475.279 106.408C478.778 106.408 482.191 106.109 485.519 105.512C488.932 104.829 491.706 104.019 493.839 103.08L496.399 118.568C495.375 119.08 494.01 119.592 492.303 120.104C490.596 120.616 488.676 121.043 486.543 121.384C484.495 121.811 482.276 122.152 479.887 122.408C477.498 122.664 475.108 122.792 472.719 122.792C466.66 122.792 461.37 121.896 456.847 120.104C452.41 118.312 448.698 115.88 445.711 112.808C442.81 109.651 440.634 105.939 439.183 101.672C437.818 97.4053 437.135 92.7973 437.135 87.848ZM481.935 80.552C481.85 78.9307 481.551 77.352 481.039 75.816C480.612 74.28 479.887 72.9147 478.863 71.72C477.924 70.5253 476.687 69.544 475.151 68.776C473.7 68.008 471.866 67.624 469.647 67.624C467.514 67.624 465.679 68.008 464.143 68.776C462.607 69.4587 461.327 70.3973 460.303 71.592C459.279 72.7867 458.468 74.1947 457.871 75.816C457.359 77.352 456.975 78.9307 456.719 80.552H481.935ZM555.661 70.568C553.954 70.1413 551.949 69.7147 549.645 69.288C547.341 68.776 544.866 68.52 542.221 68.52C541.026 68.52 539.576 68.648 537.869 68.904C536.248 69.0747 535.01 69.288 534.157 69.544V121H515.085V57.256C518.498 56.0613 522.509 54.952 527.117 53.928C531.81 52.8187 537.016 52.264 542.733 52.264C543.757 52.264 544.994 52.3493 546.445 52.52C547.896 52.6053 549.346 52.776 550.797 53.032C552.248 53.2027 553.698 53.4587 555.149 53.8C556.6 54.056 557.837 54.3973 558.861 54.824L555.661 70.568ZM630.811 87.208C630.811 92.4987 630.043 97.3627 628.507 101.8C626.971 106.152 624.752 109.907 621.851 113.064C618.95 116.136 615.451 118.525 611.355 120.232C607.344 121.939 602.822 122.792 597.787 122.792C592.838 122.792 588.315 121.939 584.219 120.232C580.208 118.525 576.752 116.136 573.851 113.064C570.95 109.907 568.688 106.152 567.067 101.8C565.446 97.3627 564.635 92.4987 564.635 87.208C564.635 81.9173 565.446 77.096 567.067 72.744C568.774 68.392 571.078 64.68 573.979 61.608C576.966 58.536 580.464 56.1467 584.475 54.44C588.571 52.7333 593.008 51.88 597.787 51.88C602.651 51.88 607.088 52.7333 611.099 54.44C615.195 56.1467 618.694 58.536 621.595 61.608C624.496 64.68 626.758 68.392 628.379 72.744C630 77.096 630.811 81.9173 630.811 87.208ZM611.355 87.208C611.355 81.32 610.16 76.712 607.771 73.384C605.467 69.9707 602.139 68.264 597.787 68.264C593.435 68.264 590.064 69.9707 587.675 73.384C585.286 76.712 584.091 81.32 584.091 87.208C584.091 93.096 585.286 97.7893 587.675 101.288C590.064 104.701 593.435 106.408 597.787 106.408C602.139 106.408 605.467 104.701 607.771 101.288C610.16 97.7893 611.355 93.096 611.355 87.208Z" fill="#2F2E2D"/>
<rect y="10" width="127" height="127" rx="15" fill="#2F2E2D"/>
<path d="M98.1978 52.3246C98.9976 52.864 99.743 53.4803 100.424 54.1637C101.065 54.8081 101.709 55.4586 102.356 56.127C103.112 56.908 103.764 57.782 104.349 58.6988C104.986 59.6979 105.614 60.6613 106.149 61.6747C107.719 64.6533 108.564 67.8763 108.743 71.227C108.938 74.8892 108.415 78.456 107.055 81.913C105.84 85.0016 104.051 87.6874 101.852 90.1244C101.222 90.8225 100.47 91.4152 99.7462 92.0231C98.9912 92.6572 98.2505 93.3279 97.4194 93.8481C95.1539 95.2665 92.7562 96.4009 90.1513 97.0839C86.4706 98.0489 82.7718 98.2387 79.0322 97.5255C75.3245 96.8184 71.9614 95.3705 68.8966 93.1314C66.8273 91.6197 65.0284 89.8548 63.4923 87.8529V87.8529C60.3479 83.755 55.994 80.0823 50.8288 80.085C48.8315 80.0861 46.8345 80.0871 44.8373 80.0882C40.6435 80.0904 37.2412 83.492 37.2487 87.6858V87.6858C37.2522 89.6866 36.1997 90.7294 34.1688 90.7347C31.5581 90.7415 28.9472 90.7576 26.3369 90.7288C25.9875 90.725 25.6386 90.6777 25.2899 90.6205C24.6869 90.5216 24.1436 90.2647 23.7255 89.8191V89.8191C23.4075 89.4802 23.1724 89.0292 23.0715 88.5756C23.0323 88.3994 23.0038 88.2322 23.0009 88.0646C22.9766 86.6694 22.9913 85.2734 22.9936 83.8777C22.9956 82.6537 23.0001 81.4298 23.0035 80.2371C23.0038 80.1331 22.9459 80.005 22.8419 80.0048V80.0048C21.0589 80.0024 19.2754 79.9736 17.4931 80.0082C15.9291 80.0386 14.6267 78.7265 14.6493 77.1398C14.6895 74.3231 14.6489 71.5055 14.6697 68.6884C14.6833 66.8569 15.6587 65.7397 17.6146 65.7388C30.9515 65.7324 44.2884 65.7255 57.6253 65.7174C58.2176 65.717 58.9518 65.9143 59.3621 65.6374C59.7689 65.3628 59.8462 64.603 60.0751 64.059C60.133 63.9214 60.2319 63.8008 60.2881 63.6626C61.8589 59.7948 64.1247 56.4538 67.3778 53.76C69.0572 52.3694 70.7879 51.0796 72.7678 50.2237C74.6781 49.3978 76.6632 48.6639 78.6862 48.1999C81.7281 47.5023 84.8409 47.507 87.9249 48.0514C91.3266 48.6519 94.4885 49.8856 97.3825 51.7816C97.6556 51.9605 97.9271 52.1421 98.1978 52.3246ZM95.191 68.674C94.591 67.5632 94.055 66.4115 93.3774 65.3502C92.0803 63.3187 90.1269 62.0511 87.9246 61.2498C84.7896 60.1093 81.5895 60.1869 78.5637 61.5948C77.1559 62.2499 75.808 63.2135 74.7168 64.3178C73.7236 65.323 72.9877 66.6469 72.3653 67.9394C71.3938 69.9571 71.172 72.1335 71.4505 74.3694C71.7293 76.6078 72.5743 78.5602 73.9201 80.3791C75.5229 82.545 77.68 83.8346 80.1407 84.6576C81.8363 85.2248 83.6233 85.2512 85.4066 85.0102C87.6153 84.7118 89.6171 83.8834 91.3089 82.4626C93.4804 80.6388 95.0606 78.4043 95.6426 75.5447C96.1115 73.2409 96.0698 70.9869 95.191 68.674Z" fill="#4685FF"/>
</svg>
